<?xml version="1.0" encoding="UTF-8"?>
<svg width="197px" height="65px" viewBox="0 0 197 65" version="1.1" xmlns="http://www.w3.org/2000/svg" xmlns:xlink="http://www.w3.org/1999/xlink">
    <!-- Generator: Sketch 49.3 (51167) - http://www.bohemiancoding.com/sketch -->
    <title>Page 1 Copy@2x</title>
    <desc>Created with Sketch.</desc>
    <defs></defs>
    <g id="需求方" stroke="none" stroke-width="1" fill="none" fill-rule="evenodd">
        <g id="启动页" transform="translate(-89.000000, -286.000000)" fill="#FFFFFF">
            <g id="Page-1-Copy" transform="translate(89.000000, 286.000000)">
                <path d="M43.7512653,25.8709468 C43.7512653,25.8709468 41.0668989,28.013715 42.3450289,30.4081198 C42.7283701,31.1639939 42.9997405,31.5925476 43.9057753,31.5925476 C44.8118101,31.5925476 51.9104679,30.7735233 55.1576223,31.8904623 C57.1960783,32.5600472 60.7454072,33.6027486 60.5185318,36.5804491 C60.7454072,36.9526014 61.2739683,37.1015588 61.5761428,36.8036441 C61.8778285,36.5062115 62.4063895,35.9851018 62.9349505,36.5804491 C63.4635116,37.1762785 65.0496836,37.0273211 66.0310176,36.8036441 C67.0128405,36.5804491 67.9946634,36.2825345 67.9946634,36.2825345 C67.9946634,36.2825345 68.4474363,35.3892725 68.2210499,35.1660775 C67.9946634,34.9428825 70.2599948,35.4639922 71.0149423,34.6449679 C71.7703788,33.8254615 71.3924161,32.7090045 71.3924161,32.7090045 L71.9967652,32.1878949 C71.9967652,32.1878949 72.374239,25.6366644 64.9738955,22.9563964 C57.574041,20.2766105 46.0126851,23.8723153 43.7512653,25.8709468" id="Fill-1"></path>
                <path d="M41.1095192,45.6616 C41.1095192,45.6616 39.9753846,44.7954298 40.5422115,44.1460468 C41.1095192,43.4966638 41.9604808,42.3422596 42.9527885,42.1978979 C43.9450962,42.0535362 46.4975,42.4866213 48.4821154,43.2079404 C50.4672115,43.9297489 55.9965385,46.0222596 60.3210577,50.7123021 C62.3768269,53.3822596 66.4176923,58.145217 63.7946154,62.4741106 C63.2273077,62.9071957 62.3061538,63.123983 61.81,63.0515574 C61.3133654,62.9796213 59.6830769,64.855834 59.1869231,64.9277702 C58.6902885,65.0001957 56.0676923,65.0001957 56.0676923,65.0001957 C56.0676923,65.0001957 51.9561538,60.7422596 49.4744231,60.0209404 C48.4114423,59.8046426 47.3479808,58.7221745 47.7023077,58.145217 C48.0571154,57.5677702 47.9859615,55.1865362 47.9859615,55.1865362 C47.9859615,55.1865362 48.1277885,53.8153447 47.2773077,52.1559191 C46.4263462,50.4960043 43.2364423,46.3834085 41.1095192,45.6616" id="Fill-3"></path>
                <path d="M9.04351826,51.4848252 C9.04351826,51.4848252 13.5136203,54.2741184 17.8941972,52.654698 C19.5928075,52.1145733 21.3804694,51.8447494 23.3476553,49.7753046 C25.3143676,47.7058597 26.2081986,45.3665909 27.012978,45.0066668 C27.8172837,44.6467426 28.3539612,44.3769186 28.3539612,44.3769186 C28.3539612,44.3769186 28.1749108,44.0169945 29.158267,44.0169945 C30.1420968,44.0169945 31.1254529,43.8372707 31.48308,44.6467426 C31.8402334,45.4562144 32.9135885,46.7161874 32.9135885,49.1455564 C32.9135885,51.5744487 33.628369,55.6237149 30.9464025,58.682832 C29.9630464,59.6725043 28.8006398,61.6518489 28.264436,61.6518489 C27.7282322,61.6518489 27.012978,61.6518489 26.5658257,62.0117731 C26.1186734,62.3716973 24.7776901,63.811394 23.8838592,63.6311935 C22.9900282,63.4519465 20.1290113,64.0812179 19.3247056,63.9911177 C18.5199262,63.9014942 18.0727739,63.0014454 17.3575197,63.0915456 C16.6422654,63.1816459 14.9441288,63.0014454 14.9441288,63.0014454 L14.2284009,62.2815971 C14.2284009,62.2815971 12.7088409,62.7316215 12.5297905,62.2815971 C12.3512138,61.8320494 12.7088409,61.5622254 11.6359596,60.6621766 C10.5630782,59.7626045 10.4740267,59.7626045 10.5630782,58.3229078 C10.6526034,56.8832111 8.68589115,52.4744975 9.04351826,51.4848252" id="Fill-6"></path>
                <path d="M0,29.2255629 C0,29.2255629 2.24980131,34.8339815 6.74988079,36.6729271 C10.620035,38.3277345 14.309938,39.7068219 18.6297663,38.6034545 C21.2400699,38.0520144 25.1998728,36.7649961 27,32.2599449 C26.8197489,31.1565776 26.8197489,29.9611412 26.2799491,29.3171449 C25.7401494,28.6736357 25.2899984,27.7544065 23.8498967,27.8464756 C22.409795,27.9380575 18.3598665,29.5933521 15.0299889,27.6623375 C12.5999364,25.548159 9.17993324,21.5945479 8.18998252,18.0087258 C7.56005722,17.8250748 6.47998093,20.5832496 6.84000636,22.238057 C5.66980449,22.238057 5.4900302,23.6171444 5.4900302,23.6171444 L4.94975362,24.8120936 L4.14005404,24.2606535 C4.14005404,24.2606535 2.79007789,22.9736352 1.61987602,25.2719518 C0.449674149,27.5707555 0,29.2255629 0,29.2255629" id="Fill-8"></path>
                <path d="M23.3872551,15.1397675 L23.6656435,13.2945783 C23.6656435,13.2945783 22.4591298,12.0031902 23.2947869,10.2503826 C24.1299521,8.49757503 26.2650829,4.4381587 28.9569906,2.68583991 C29.978076,2.03965708 31.55643,0.933032331 33.877481,2.03965708 C34.4342578,2.13203874 34.8980746,2.13203874 35.6412634,1.85538256 C36.3834685,1.57872637 37.0336973,1.39396305 38.7045195,0.933032331 C40.3753418,0.471612823 41.6748156,-0.0821883455 42.1391242,0.0101933146 C42.6034327,0.102574975 44.0883348,-0.266462874 43.9958666,0.748269011 C43.9029065,1.7630009 42.6034327,1.85538256 42.6034327,1.85538256 C42.6034327,1.85538256 41.0250787,2.50107659 40.3753418,3.51580848 C39.7256049,4.53054036 39.0753762,5.1762344 39.1683362,6.09907342 C39.2612963,7.02142364 38.333171,9.05088741 38.9829079,9.88134477 C39.6326448,10.7113133 40.6537302,11.5417707 40.561262,12.1874647 C40.4683019,12.8336476 39.9110332,13.5717233 39.9110332,13.5717233 C39.9110332,13.5717233 39.3542564,19.5677329 38.5185994,20.4905719 C37.6829423,21.4129221 37.497514,23.9961871 35.0839947,23.9038054 C32.6704755,23.8114238 31.0926133,24.3652249 30.3494245,23.5347676 C29.6072193,22.704799 27.7504769,22.704799 23.3872551,15.1397675" id="Fill-10"></path>
                <path d="M140.753201,27.6057292 L140.753201,48.3675071 L143.633663,48.3675071 C146.088436,48.3675071 147.836001,48.096951 148.873434,47.5514592 C149.911842,47.006454 150.724255,46.0570744 151.313109,44.7008874 C151.900014,43.345187 152.195171,41.144242 152.195171,38.103405 C152.195171,34.0766926 151.537156,31.3210101 150.222586,29.8334379 C148.908016,28.3482988 146.729404,27.6057292 143.684804,27.6057292 L140.753201,27.6057292 Z M129,19 L146.461522,19 C149.903075,19 152.683691,19.4652009 154.802394,20.3999821 C156.921097,21.3323302 158.672071,22.6709992 160.055803,24.4169623 C161.440022,26.1624387 162.443849,28.192583 163.066797,30.5078818 C163.68877,32.8231806 164,35.2771638 164,37.8698314 C164,41.93012 163.536808,45.0809312 162.611884,47.3183722 C161.685987,49.5553265 160.402101,51.4326747 158.759741,52.9440909 C157.11592,54.4559936 155.351795,55.4613336 153.465906,55.9630303 C150.888881,56.654019 148.553437,57 146.461522,57 L129,57 L129,19 Z" id="Fill-12"></path>
                <polygon id="Fill-14" points="168.092607 19.4187696 196.928273 19.4187696 196.928273 27.490162 179.806673 27.490162 179.806673 34.0478076 194.431373 34.0478076 194.431373 41.6328962 179.806673 41.6328962 179.806673 56.9815291 168.092607 56.9815291"></polygon>
                <path d="M99.758326,33.956652 C99.9883687,25.8510614 105.614001,25.8675766 106.939531,25.8675766 C112.506562,26.5651033 112.795205,33.956652 112.795205,33.956652 L99.758326,33.956652 Z M120.528997,24.8703466 C118.430039,21.9894059 115.004583,18.1107494 106.71869,18 C103.7354,18 94.8969198,18 90.5881001,28.1947705 C89.4834112,31.29721 86.5006057,45.5921358 93.4609694,52.6839811 C95.8911882,54.8999399 104.287987,63.3217491 122.9597,52.9054798 C121.523265,50.1352885 119.092562,46.1463683 119.092562,46.1463683 C119.092562,46.1463683 110.806184,51.575516 104.509312,49.0268233 C103.514559,48.2515778 99.3161599,45.8136345 99.8687465,40.4947505 L122.9597,40.4947505 C122.9597,40.4947505 123.511802,30.0784812 120.528997,24.8703466 Z" id="Fill-17"></path>
            </g>
        </g>
    </g>
</svg>