<?xml version="1.0" encoding="UTF-8"?>
<svg width="20px" height="20px" viewBox="0 0 20 20" version="1.1" xmlns="http://www.w3.org/2000/svg" xmlns:xlink="http://www.w3.org/1999/xlink">
    <!-- Generator: Sketch 49.3 (51167) - http://www.bohemiancoding.com/sketch -->
    <title>symx</title>
    <desc>Created with Sketch.</desc>
    <defs></defs>
    <g id="Page-3" stroke="none" stroke-width="1" fill="none" fill-rule="evenodd">
        <path d="M10,20 C4.4771525,20 0,15.5228475 0,10 C0,4.4771525 4.4771525,0 10,0 C15.5228475,0 20,4.4771525 20,10 C20,15.5228475 15.5228475,20 10,20 Z M7,12 C8.65685425,12 10,10.6568542 10,9 C10,7.34314575 8.65685425,6 7,6 C5.34314575,6 4,7.34314575 4,9 C4,10.6568542 5.34314575,12 7,12 Z M14,7 C15.1045695,7 16,6.1045695 16,5 C16,3.8954305 15.1045695,3 14,3 C12.8954305,3 12,3.8954305 12,5 C12,6.1045695 12.8954305,7 14,7 Z" id="symx" fill="#A0ACC0"></path>
    </g>
</svg>