<?xml version="1.0" encoding="UTF-8"?>
<svg width="20px" height="20px" viewBox="0 0 20 20" version="1.1" xmlns="http://www.w3.org/2000/svg" xmlns:xlink="http://www.w3.org/1999/xlink">
    <!-- Generator: Sketch 49.3 (51167) - http://www.bohemiancoding.com/sketch -->
    <title>dljy</title>
    <desc>Created with Sketch.</desc>
    <defs></defs>
    <g id="Page-3" stroke="none" stroke-width="1" fill="none" fill-rule="evenodd">
        <path d="M10,20 C4.4771525,20 0,15.5228475 0,10 C0,4.4771525 4.4771525,0 10,0 C15.5228475,0 20,4.4771525 20,10 C20,15.5228475 15.5228475,20 10,20 Z M8.68316879,6.81358938 L11.5439652,11.0631019 L17.0562398,7.07715954 L15.8843208,5.4564789 L12.0480296,8.2305126 L9.16844359,3.95308946 L2.62663816,8.84601916 L3.82453371,10.4475953 L8.68316879,6.81358938 Z M8.61702536,13.1806215 L10.7978729,16.4201175 L15,13.3815467 L14.1066206,12.1460666 L11.1821321,14.2607729 L8.98696092,11 L4,14.729987 L4.9131819,15.9509034 L8.61702536,13.1806215 Z" id="dljy" fill="#A0ACC0"></path>
    </g>
</svg>