<?xml version="1.0" encoding="UTF-8"?>
<svg width="20px" height="17px" viewBox="0 0 20 17" version="1.1" xmlns="http://www.w3.org/2000/svg" xmlns:xlink="http://www.w3.org/1999/xlink">
    <!-- Generator: Sketch 49.3 (51167) - http://www.bohemiancoding.com/sketch -->
    <title>wd</title>
    <desc>Created with Sketch.</desc>
    <defs></defs>
    <g id="Page-3" stroke="none" stroke-width="1" fill="none" fill-rule="evenodd">
        <path d="M3.09215559,17 C1.18683112,15.2035854 0,12.6716128 0,9.86615115 C0,4.41722633 4.4771525,0 10,0 C15.5228475,0 20,4.41722633 20,9.86615115 C20,12.6716128 18.8131689,15.2035854 16.9078444,17 C15.7677714,15.6546721 14.2314936,14.6474214 12.4760072,14.152875 C13.9837319,13.3033433 15,11.7018397 15,9.86615115 C15,7.14168874 12.7614237,4.93307557 10,4.93307557 C7.23857625,4.93307557 5,7.14168874 5,9.86615115 C5,11.7018397 6.01626805,13.3033433 7.52399283,14.152875 C5.76850637,14.6474214 4.23222861,15.6546721 3.09215559,17 Z" id="wd" fill="#A0ACC0"></path>
    </g>
</svg>